<?xml version="1.0" encoding="utf-8" standalone="no"?>
<!DOCTYPE svg PUBLIC "-//W3C//DTD SVG 1.1//EN"
  "http://www.w3.org/Graphics/SVG/1.1/DTD/svg11.dtd">
<!-- Created with matplotlib (https://matplotlib.org/) -->
<svg height="144pt" version="1.1" viewBox="0 0 144 144" width="144pt" xmlns="http://www.w3.org/2000/svg" xmlns:xlink="http://www.w3.org/1999/xlink">
 <defs>
  <style type="text/css">
*{stroke-linecap:butt;stroke-linejoin:round;}
  </style>
 </defs>
 <g id="figure_1">
  <g id="patch_1">
   <path d="M 0 144 
L 144 144 
L 144 0 
L 0 0 
z
" style="fill:#ffffff;"/>
  </g>
  <g id="axes_1">
   <g id="LineCollection_1">
    <path clip-path="url(#pa3c6ed9acf)" d="M 131.828792 72.000002 
L 86.123661 11.918467 
" style="fill:none;stroke:#000000;"/>
    <path clip-path="url(#pa3c6ed9acf)" d="M 131.828792 72.000002 
L 12.171208 34.867572 
" style="fill:none;stroke:#000000;"/>
    <path clip-path="url(#pa3c6ed9acf)" d="M 86.123661 11.918467 
L 12.171212 109.132435 
" style="fill:none;stroke:#000000;"/>
    <path clip-path="url(#pa3c6ed9acf)" d="M 86.123661 11.918467 
L 86.123671 132.081533 
" style="fill:none;stroke:#000000;"/>
    <path clip-path="url(#pa3c6ed9acf)" d="M 12.171208 34.867572 
L 12.171212 109.132435 
" style="fill:none;stroke:#000000;"/>
    <path clip-path="url(#pa3c6ed9acf)" d="M 12.171208 34.867572 
L 86.123671 132.081533 
" style="fill:none;stroke:#000000;"/>
   </g>
   <g id="PathCollection_1">
    <defs>
     <path d="M 0 12.247449 
C 3.248061 12.247449 6.363528 10.95698 8.660254 8.660254 
C 10.95698 6.363528 12.247449 3.248061 12.247449 0 
C 12.247449 -3.248061 10.95698 -6.363528 8.660254 -8.660254 
C 6.363528 -10.95698 3.248061 -12.247449 0 -12.247449 
C -3.248061 -12.247449 -6.363528 -10.95698 -8.660254 -8.660254 
C -10.95698 -6.363528 -12.247449 -3.248061 -12.247449 0 
C -12.247449 3.248061 -10.95698 6.363528 -8.660254 8.660254 
C -6.363528 10.95698 -3.248061 12.247449 0 12.247449 
z
" id="m16480ce546" style="stroke:#1f78b4;"/>
    </defs>
    <g clip-path="url(#pa3c6ed9acf)">
     <use style="fill:#1f78b4;stroke:#1f78b4;" x="131.828792" xlink:href="#m16480ce546" y="72.000002"/>
     <use style="fill:#1f78b4;stroke:#1f78b4;" x="86.123661" xlink:href="#m16480ce546" y="11.918467"/>
     <use style="fill:#1f78b4;stroke:#1f78b4;" x="12.171208" xlink:href="#m16480ce546" y="34.867572"/>
     <use style="fill:#1f78b4;stroke:#1f78b4;" x="12.171212" xlink:href="#m16480ce546" y="109.132435"/>
     <use style="fill:#1f78b4;stroke:#1f78b4;" x="86.123671" xlink:href="#m16480ce546" y="132.081533"/>
    </g>
   </g>
  </g>
 </g>
 <defs>
  <clipPath id="pa3c6ed9acf">
   <rect height="144" width="144" x="0" y="0"/>
  </clipPath>
 </defs>
</svg>
