<?xml version="1.0" encoding="utf-8" standalone="no"?>
<!DOCTYPE svg PUBLIC "-//W3C//DTD SVG 1.1//EN"
  "http://www.w3.org/Graphics/SVG/1.1/DTD/svg11.dtd">
<!-- Created with matplotlib (https://matplotlib.org/) -->
<svg height="144pt" version="1.1" viewBox="0 0 144 144" width="144pt" xmlns="http://www.w3.org/2000/svg" xmlns:xlink="http://www.w3.org/1999/xlink">
 <defs>
  <style type="text/css">
*{stroke-linecap:butt;stroke-linejoin:round;}
  </style>
 </defs>
 <g id="figure_1">
  <g id="patch_1">
   <path d="M 0 144 
L 144 144 
L 144 0 
L 0 0 
z
" style="fill:#ffffff;"/>
  </g>
  <g id="axes_1">
   <g id="patch_2">
    <path clip-path="url(#pbab70221af)" d="M 130.787866 71.999998 
Q 130.787866 71.999998 130.787866 71.999998 
" style="fill:none;stroke:#000000;stroke-linecap:round;"/>
   </g>
   <g id="patch_3">
    <path clip-path="url(#pbab70221af)" d="M 130.787866 71.999998 
Q 77.462928 98.987324 25.135547 125.469794 
" style="fill:none;stroke:#000000;stroke-linecap:round;"/>
    <path clip-path="url(#pbab70221af)" d="M 36.315755 125.415438 
L 25.135547 125.469794 
L 31.800187 116.493014 
L 36.315755 125.415438 
z
" style="stroke:#000000;stroke-linecap:round;"/>
   </g>
   <g id="patch_4">
    <path clip-path="url(#pbab70221af)" d="M 13.212134 12.495868 
Q 13.212139 65.874895 13.212144 118.135888 
" style="fill:none;stroke:#000000;stroke-linecap:round;"/>
    <path clip-path="url(#pbab70221af)" d="M 18.212143 108.135888 
L 13.212144 118.135888 
L 8.212143 108.135889 
L 18.212143 108.135888 
z
" style="stroke:#000000;stroke-linecap:round;"/>
   </g>
   <g id="patch_5">
    <path clip-path="url(#pbab70221af)" d="M 13.212145 131.504132 
Q 13.21214 78.125105 13.212135 25.864112 
" style="fill:none;stroke:#000000;stroke-linecap:round;"/>
    <path clip-path="url(#pbab70221af)" d="M 8.212136 35.864112 
L 13.212135 25.864112 
L 18.212136 35.864111 
L 8.212136 35.864112 
z
" style="stroke:#000000;stroke-linecap:round;"/>
   </g>
   <g id="PathCollection_1">
    <defs>
     <path d="M 0 12.247449 
C 3.248061 12.247449 6.363528 10.95698 8.660254 8.660254 
C 10.95698 6.363528 12.247449 3.248061 12.247449 0 
C 12.247449 -3.248061 10.95698 -6.363528 8.660254 -8.660254 
C 6.363528 -10.95698 3.248061 -12.247449 0 -12.247449 
C -3.248061 -12.247449 -6.363528 -10.95698 -8.660254 -8.660254 
C -10.95698 -6.363528 -12.247449 -3.248061 -12.247449 0 
C -12.247449 3.248061 -10.95698 6.363528 -8.660254 8.660254 
C -6.363528 10.95698 -3.248061 12.247449 0 12.247449 
z
" id="mae4d74e065" style="stroke:#1f78b4;"/>
    </defs>
    <g clip-path="url(#pbab70221af)">
     <use style="fill:#1f78b4;stroke:#1f78b4;" x="130.787866" xlink:href="#mae4d74e065" y="71.999998"/>
     <use style="fill:#1f78b4;stroke:#1f78b4;" x="13.212134" xlink:href="#mae4d74e065" y="12.495868"/>
     <use style="fill:#1f78b4;stroke:#1f78b4;" x="13.212145" xlink:href="#mae4d74e065" y="131.504132"/>
    </g>
   </g>
  </g>
 </g>
 <defs>
  <clipPath id="pbab70221af">
   <rect height="144" width="144" x="0" y="0"/>
  </clipPath>
 </defs>
</svg>
