<?xml version="1.0" encoding="utf-8" standalone="no"?>
<!DOCTYPE svg PUBLIC "-//W3C//DTD SVG 1.1//EN"
  "http://www.w3.org/Graphics/SVG/1.1/DTD/svg11.dtd">
<!-- Created with matplotlib (https://matplotlib.org/) -->
<svg height="144pt" version="1.1" viewBox="0 0 144 144" width="144pt" xmlns="http://www.w3.org/2000/svg" xmlns:xlink="http://www.w3.org/1999/xlink">
 <defs>
  <style type="text/css">
*{stroke-linecap:butt;stroke-linejoin:round;}
  </style>
 </defs>
 <g id="figure_1">
  <g id="patch_1">
   <path d="M 0 144 
L 144 144 
L 144 0 
L 0 0 
z
" style="fill:#ffffff;"/>
  </g>
  <g id="axes_1">
   <g id="patch_2">
    <path clip-path="url(#p86890fd94e)" d="M 131.504132 72 
Q 106.082131 46.578 81.450699 21.946569 
" style="fill:none;stroke:#000000;stroke-linecap:round;"/>
    <path clip-path="url(#p86890fd94e)" d="M 84.986233 32.553171 
L 81.450699 21.946569 
L 92.057301 25.482103 
L 84.986233 32.553171 
z
" style="stroke:#000000;stroke-linecap:round;"/>
   </g>
   <g id="patch_3">
    <path clip-path="url(#p86890fd94e)" d="M 12.495868 72.000005 
Q 65.874895 72.000003 118.135888 72.000001 
" style="fill:none;stroke:#000000;stroke-linecap:round;"/>
    <path clip-path="url(#p86890fd94e)" d="M 108.135888 67.000001 
L 118.135888 72.000001 
L 108.135889 77.000001 
L 108.135888 67.000001 
z
" style="stroke:#000000;stroke-linecap:round;"/>
   </g>
   <g id="patch_4">
    <path clip-path="url(#p86890fd94e)" d="M 72.000001 131.504132 
Q 71.999999 78.125105 71.999998 25.864112 
" style="fill:none;stroke:#000000;stroke-linecap:round;"/>
    <path clip-path="url(#p86890fd94e)" d="M 66.999998 35.864112 
L 71.999998 25.864112 
L 76.999998 35.864111 
L 66.999998 35.864112 
z
" style="stroke:#000000;stroke-linecap:round;"/>
   </g>
   <g id="PathCollection_1">
    <defs>
     <path d="M 0 12.247449 
C 3.248061 12.247449 6.363528 10.95698 8.660254 8.660254 
C 10.95698 6.363528 12.247449 3.248061 12.247449 0 
C 12.247449 -3.248061 10.95698 -6.363528 8.660254 -8.660254 
C 6.363528 -10.95698 3.248061 -12.247449 0 -12.247449 
C -3.248061 -12.247449 -6.363528 -10.95698 -8.660254 -8.660254 
C -10.95698 -6.363528 -12.247449 -3.248061 -12.247449 0 
C -12.247449 3.248061 -10.95698 6.363528 -8.660254 8.660254 
C -6.363528 10.95698 -3.248061 12.247449 0 12.247449 
z
" id="m1d59482a51" style="stroke:#1f78b4;"/>
    </defs>
    <g clip-path="url(#p86890fd94e)">
     <use style="fill:#1f78b4;stroke:#1f78b4;" x="131.504132" xlink:href="#m1d59482a51" y="72"/>
     <use style="fill:#1f78b4;stroke:#1f78b4;" x="71.999997" xlink:href="#m1d59482a51" y="12.495868"/>
     <use style="fill:#1f78b4;stroke:#1f78b4;" x="12.495868" xlink:href="#m1d59482a51" y="72.000005"/>
     <use style="fill:#1f78b4;stroke:#1f78b4;" x="72.000001" xlink:href="#m1d59482a51" y="131.504132"/>
    </g>
   </g>
  </g>
 </g>
 <defs>
  <clipPath id="p86890fd94e">
   <rect height="144" width="144" x="0" y="0"/>
  </clipPath>
 </defs>
</svg>
